<?xml version="1.0" encoding="utf-8" standalone="no"?>
<!DOCTYPE svg PUBLIC "-//W3C//DTD SVG 1.1//EN"
  "http://www.w3.org/Graphics/SVG/1.1/DTD/svg11.dtd">
<svg xmlns:xlink="http://www.w3.org/1999/xlink" width="565.83875pt" height="309.621344pt" viewBox="0 0 565.83875 309.621344" xmlns="http://www.w3.org/2000/svg" version="1.1">
 <metadata>
  <rdf:RDF xmlns:dc="http://purl.org/dc/elements/1.1/" xmlns:cc="http://creativecommons.org/ns#" xmlns:rdf="http://www.w3.org/1999/02/22-rdf-syntax-ns#">
   <cc:Work>
    <dc:type rdf:resource="http://purl.org/dc/dcmitype/StillImage"/>
    <dc:date>2026-03-19T13:24:24.377496</dc:date>
    <dc:format>image/svg+xml</dc:format>
    <dc:creator>
     <cc:Agent>
      <dc:title>Matplotlib v3.9.4, https://matplotlib.org/</dc:title>
     </cc:Agent>
    </dc:creator>
   </cc:Work>
  </rdf:RDF>
 </metadata>
 <defs>
  <style type="text/css">*{stroke-linejoin: round; stroke-linecap: butt}</style>
 </defs>
 <g id="figure_1">
  <g id="patch_1">
   <path d="M 0 309.621344 
L 565.83875 309.621344 
L 565.83875 0 
L 0 0 
z
" style="fill: #ffffff"/>
  </g>
  <g id="axes_1">
   <g id="patch_2">
    <path d="M 42.365 269.423219 
L 558.63875 269.423219 
L 558.63875 10.999219 
L 42.365 10.999219 
z
" style="fill: #e8e0d4"/>
   </g>
   <g id="matplotlib.axis_1">
    <g id="xtick_1">
     <g id="line2d_1">
      <path d="M 120.129488 269.423219 
L 120.129488 10.999219 
" clip-path="url(#p866494a5c9)" style="fill: none; stroke: #b0b0b0; stroke-opacity: 0.25; stroke-width: 0.5; stroke-linecap: square"/>
     </g>
     <g id="line2d_2">
      <defs>
       <path id="m23ad593327" d="M 0 0 
L 0 3.5 
" style="stroke: #000000; stroke-width: 0.8"/>
      </defs>
      <g>
       <use xlink:href="#m23ad593327" x="120.129488" y="269.423219" style="stroke: #000000; stroke-width: 0.8"/>
      </g>
     </g>
     <g id="text_1">
      <!-- $\mathdefault{10^{-8}}$ -->
      <g transform="translate(108.379488 284.021656) scale(0.1 -0.1)">
       <defs>
        <path id="DejaVuSans-31" d="M 794 531 
L 1825 531 
L 1825 4091 
L 703 3866 
L 703 4441 
L 1819 4666 
L 2450 4666 
L 2450 531 
L 3481 531 
L 3481 0 
L 794 0 
L 794 531 
z
" transform="scale(0.015625)"/>
        <path id="DejaVuSans-30" d="M 2034 4250 
Q 1547 4250 1301 3770 
Q 1056 3291 1056 2328 
Q 1056 1369 1301 889 
Q 1547 409 2034 409 
Q 2525 409 2770 889 
Q 3016 1369 3016 2328 
Q 3016 3291 2770 3770 
Q 2525 4250 2034 4250 
z
M 2034 4750 
Q 2819 4750 3233 4129 
Q 3647 3509 3647 2328 
Q 3647 1150 3233 529 
Q 2819 -91 2034 -91 
Q 1250 -91 836 529 
Q 422 1150 422 2328 
Q 422 3509 836 4129 
Q 1250 4750 2034 4750 
z
" transform="scale(0.015625)"/>
        <path id="DejaVuSans-2212" d="M 678 2272 
L 4684 2272 
L 4684 1741 
L 678 1741 
L 678 2272 
z
" transform="scale(0.015625)"/>
        <path id="DejaVuSans-38" d="M 2034 2216 
Q 1584 2216 1326 1975 
Q 1069 1734 1069 1313 
Q 1069 891 1326 650 
Q 1584 409 2034 409 
Q 2484 409 2743 651 
Q 3003 894 3003 1313 
Q 3003 1734 2745 1975 
Q 2488 2216 2034 2216 
z
M 1403 2484 
Q 997 2584 770 2862 
Q 544 3141 544 3541 
Q 544 4100 942 4425 
Q 1341 4750 2034 4750 
Q 2731 4750 3128 4425 
Q 3525 4100 3525 3541 
Q 3525 3141 3298 2862 
Q 3072 2584 2669 2484 
Q 3125 2378 3379 2068 
Q 3634 1759 3634 1313 
Q 3634 634 3220 271 
Q 2806 -91 2034 -91 
Q 1263 -91 848 271 
Q 434 634 434 1313 
Q 434 1759 690 2068 
Q 947 2378 1403 2484 
z
M 1172 3481 
Q 1172 3119 1398 2916 
Q 1625 2713 2034 2713 
Q 2441 2713 2670 2916 
Q 2900 3119 2900 3481 
Q 2900 3844 2670 4047 
Q 2441 4250 2034 4250 
Q 1625 4250 1398 4047 
Q 1172 3844 1172 3481 
z
" transform="scale(0.015625)"/>
       </defs>
       <use xlink:href="#DejaVuSans-31" transform="translate(0 0.765625)"/>
       <use xlink:href="#DejaVuSans-30" transform="translate(63.623047 0.765625)"/>
       <use xlink:href="#DejaVuSans-2212" transform="translate(128.203125 39.046875) scale(0.7)"/>
       <use xlink:href="#DejaVuSans-38" transform="translate(186.855469 39.046875) scale(0.7)"/>
      </g>
     </g>
    </g>
    <g id="xtick_2">
     <g id="line2d_3">
      <path d="M 300.501875 269.423219 
L 300.501875 10.999219 
" clip-path="url(#p866494a5c9)" style="fill: none; stroke: #b0b0b0; stroke-opacity: 0.25; stroke-width: 0.5; stroke-linecap: square"/>
     </g>
     <g id="line2d_4">
      <g>
       <use xlink:href="#m23ad593327" x="300.501875" y="269.423219" style="stroke: #000000; stroke-width: 0.8"/>
      </g>
     </g>
     <g id="text_2">
      <!-- $\mathdefault{10^{-7}}$ -->
      <g transform="translate(288.751875 284.021656) scale(0.1 -0.1)">
       <defs>
        <path id="DejaVuSans-37" d="M 525 4666 
L 3525 4666 
L 3525 4397 
L 1831 0 
L 1172 0 
L 2766 4134 
L 525 4134 
L 525 4666 
z
" transform="scale(0.015625)"/>
       </defs>
       <use xlink:href="#DejaVuSans-31" transform="translate(0 0.684375)"/>
       <use xlink:href="#DejaVuSans-30" transform="translate(63.623047 0.684375)"/>
       <use xlink:href="#DejaVuSans-2212" transform="translate(128.203125 38.965625) scale(0.7)"/>
       <use xlink:href="#DejaVuSans-37" transform="translate(186.855469 38.965625) scale(0.7)"/>
      </g>
     </g>
    </g>
    <g id="xtick_3">
     <g id="line2d_5">
      <path d="M 480.874262 269.423219 
L 480.874262 10.999219 
" clip-path="url(#p866494a5c9)" style="fill: none; stroke: #b0b0b0; stroke-opacity: 0.25; stroke-width: 0.5; stroke-linecap: square"/>
     </g>
     <g id="line2d_6">
      <g>
       <use xlink:href="#m23ad593327" x="480.874262" y="269.423219" style="stroke: #000000; stroke-width: 0.8"/>
      </g>
     </g>
     <g id="text_3">
      <!-- $\mathdefault{10^{-6}}$ -->
      <g transform="translate(469.124262 284.021656) scale(0.1 -0.1)">
       <defs>
        <path id="DejaVuSans-36" d="M 2113 2584 
Q 1688 2584 1439 2293 
Q 1191 2003 1191 1497 
Q 1191 994 1439 701 
Q 1688 409 2113 409 
Q 2538 409 2786 701 
Q 3034 994 3034 1497 
Q 3034 2003 2786 2293 
Q 2538 2584 2113 2584 
z
M 3366 4563 
L 3366 3988 
Q 3128 4100 2886 4159 
Q 2644 4219 2406 4219 
Q 1781 4219 1451 3797 
Q 1122 3375 1075 2522 
Q 1259 2794 1537 2939 
Q 1816 3084 2150 3084 
Q 2853 3084 3261 2657 
Q 3669 2231 3669 1497 
Q 3669 778 3244 343 
Q 2819 -91 2113 -91 
Q 1303 -91 875 529 
Q 447 1150 447 2328 
Q 447 3434 972 4092 
Q 1497 4750 2381 4750 
Q 2619 4750 2861 4703 
Q 3103 4656 3366 4563 
z
" transform="scale(0.015625)"/>
       </defs>
       <use xlink:href="#DejaVuSans-31" transform="translate(0 0.765625)"/>
       <use xlink:href="#DejaVuSans-30" transform="translate(63.623047 0.765625)"/>
       <use xlink:href="#DejaVuSans-2212" transform="translate(128.203125 39.046875) scale(0.7)"/>
       <use xlink:href="#DejaVuSans-36" transform="translate(186.855469 39.046875) scale(0.7)"/>
      </g>
     </g>
    </g>
    <g id="xtick_4">
     <g id="line2d_7">
      <defs>
       <path id="m9eea5d9c7c" d="M 0 0 
L 0 2 
" style="stroke: #000000; stroke-width: 0.6"/>
      </defs>
      <g>
       <use xlink:href="#m9eea5d9c7c" x="48.352098" y="269.423219" style="stroke: #000000; stroke-width: 0.6"/>
      </g>
     </g>
    </g>
    <g id="xtick_5">
     <g id="line2d_8">
      <g>
       <use xlink:href="#m9eea5d9c7c" x="65.831989" y="269.423219" style="stroke: #000000; stroke-width: 0.6"/>
      </g>
     </g>
    </g>
    <g id="xtick_6">
     <g id="line2d_9">
      <g>
       <use xlink:href="#m9eea5d9c7c" x="80.114099" y="269.423219" style="stroke: #000000; stroke-width: 0.6"/>
      </g>
     </g>
    </g>
    <g id="xtick_7">
     <g id="line2d_10">
      <g>
       <use xlink:href="#m9eea5d9c7c" x="92.189451" y="269.423219" style="stroke: #000000; stroke-width: 0.6"/>
      </g>
     </g>
    </g>
    <g id="xtick_8">
     <g id="line2d_11">
      <g>
       <use xlink:href="#m9eea5d9c7c" x="102.649597" y="269.423219" style="stroke: #000000; stroke-width: 0.6"/>
      </g>
     </g>
    </g>
    <g id="xtick_9">
     <g id="line2d_12">
      <g>
       <use xlink:href="#m9eea5d9c7c" x="111.8761" y="269.423219" style="stroke: #000000; stroke-width: 0.6"/>
      </g>
     </g>
    </g>
    <g id="xtick_10">
     <g id="line2d_13">
      <g>
       <use xlink:href="#m9eea5d9c7c" x="174.426987" y="269.423219" style="stroke: #000000; stroke-width: 0.6"/>
      </g>
     </g>
    </g>
    <g id="xtick_11">
     <g id="line2d_14">
      <g>
       <use xlink:href="#m9eea5d9c7c" x="206.188987" y="269.423219" style="stroke: #000000; stroke-width: 0.6"/>
      </g>
     </g>
    </g>
    <g id="xtick_12">
     <g id="line2d_15">
      <g>
       <use xlink:href="#m9eea5d9c7c" x="228.724486" y="269.423219" style="stroke: #000000; stroke-width: 0.6"/>
      </g>
     </g>
    </g>
    <g id="xtick_13">
     <g id="line2d_16">
      <g>
       <use xlink:href="#m9eea5d9c7c" x="246.204376" y="269.423219" style="stroke: #000000; stroke-width: 0.6"/>
      </g>
     </g>
    </g>
    <g id="xtick_14">
     <g id="line2d_17">
      <g>
       <use xlink:href="#m9eea5d9c7c" x="260.486486" y="269.423219" style="stroke: #000000; stroke-width: 0.6"/>
      </g>
     </g>
    </g>
    <g id="xtick_15">
     <g id="line2d_18">
      <g>
       <use xlink:href="#m9eea5d9c7c" x="272.561839" y="269.423219" style="stroke: #000000; stroke-width: 0.6"/>
      </g>
     </g>
    </g>
    <g id="xtick_16">
     <g id="line2d_19">
      <g>
       <use xlink:href="#m9eea5d9c7c" x="283.021985" y="269.423219" style="stroke: #000000; stroke-width: 0.6"/>
      </g>
     </g>
    </g>
    <g id="xtick_17">
     <g id="line2d_20">
      <g>
       <use xlink:href="#m9eea5d9c7c" x="292.248487" y="269.423219" style="stroke: #000000; stroke-width: 0.6"/>
      </g>
     </g>
    </g>
    <g id="xtick_18">
     <g id="line2d_21">
      <g>
       <use xlink:href="#m9eea5d9c7c" x="354.799374" y="269.423219" style="stroke: #000000; stroke-width: 0.6"/>
      </g>
     </g>
    </g>
    <g id="xtick_19">
     <g id="line2d_22">
      <g>
       <use xlink:href="#m9eea5d9c7c" x="386.561375" y="269.423219" style="stroke: #000000; stroke-width: 0.6"/>
      </g>
     </g>
    </g>
    <g id="xtick_20">
     <g id="line2d_23">
      <g>
       <use xlink:href="#m9eea5d9c7c" x="409.096873" y="269.423219" style="stroke: #000000; stroke-width: 0.6"/>
      </g>
     </g>
    </g>
    <g id="xtick_21">
     <g id="line2d_24">
      <g>
       <use xlink:href="#m9eea5d9c7c" x="426.576763" y="269.423219" style="stroke: #000000; stroke-width: 0.6"/>
      </g>
     </g>
    </g>
    <g id="xtick_22">
     <g id="line2d_25">
      <g>
       <use xlink:href="#m9eea5d9c7c" x="440.858874" y="269.423219" style="stroke: #000000; stroke-width: 0.6"/>
      </g>
     </g>
    </g>
    <g id="xtick_23">
     <g id="line2d_26">
      <g>
       <use xlink:href="#m9eea5d9c7c" x="452.934226" y="269.423219" style="stroke: #000000; stroke-width: 0.6"/>
      </g>
     </g>
    </g>
    <g id="xtick_24">
     <g id="line2d_27">
      <g>
       <use xlink:href="#m9eea5d9c7c" x="463.394372" y="269.423219" style="stroke: #000000; stroke-width: 0.6"/>
      </g>
     </g>
    </g>
    <g id="xtick_25">
     <g id="line2d_28">
      <g>
       <use xlink:href="#m9eea5d9c7c" x="472.620875" y="269.423219" style="stroke: #000000; stroke-width: 0.6"/>
      </g>
     </g>
    </g>
    <g id="xtick_26">
     <g id="line2d_29">
      <g>
       <use xlink:href="#m9eea5d9c7c" x="535.171761" y="269.423219" style="stroke: #000000; stroke-width: 0.6"/>
      </g>
     </g>
    </g>
    <g id="text_4">
     <!-- Per-Orbit Mean Drag Acceleration [m/s$^2$] -->
     <g transform="translate(189.126875 300.111344) scale(0.11 -0.11)">
      <defs>
       <path id="DejaVuSans-50" d="M 1259 4147 
L 1259 2394 
L 2053 2394 
Q 2494 2394 2734 2622 
Q 2975 2850 2975 3272 
Q 2975 3691 2734 3919 
Q 2494 4147 2053 4147 
L 1259 4147 
z
M 628 4666 
L 2053 4666 
Q 2838 4666 3239 4311 
Q 3641 3956 3641 3272 
Q 3641 2581 3239 2228 
Q 2838 1875 2053 1875 
L 1259 1875 
L 1259 0 
L 628 0 
L 628 4666 
z
" transform="scale(0.015625)"/>
       <path id="DejaVuSans-65" d="M 3597 1894 
L 3597 1613 
L 953 1613 
Q 991 1019 1311 708 
Q 1631 397 2203 397 
Q 2534 397 2845 478 
Q 3156 559 3463 722 
L 3463 178 
Q 3153 47 2828 -22 
Q 2503 -91 2169 -91 
Q 1331 -91 842 396 
Q 353 884 353 1716 
Q 353 2575 817 3079 
Q 1281 3584 2069 3584 
Q 2775 3584 3186 3129 
Q 3597 2675 3597 1894 
z
M 3022 2063 
Q 3016 2534 2758 2815 
Q 2500 3097 2075 3097 
Q 1594 3097 1305 2825 
Q 1016 2553 972 2059 
L 3022 2063 
z
" transform="scale(0.015625)"/>
       <path id="DejaVuSans-72" d="M 2631 2963 
Q 2534 3019 2420 3045 
Q 2306 3072 2169 3072 
Q 1681 3072 1420 2755 
Q 1159 2438 1159 1844 
L 1159 0 
L 581 0 
L 581 3500 
L 1159 3500 
L 1159 2956 
Q 1341 3275 1631 3429 
Q 1922 3584 2338 3584 
Q 2397 3584 2469 3576 
Q 2541 3569 2628 3553 
L 2631 2963 
z
" transform="scale(0.015625)"/>
       <path id="DejaVuSans-2d" d="M 313 2009 
L 1997 2009 
L 1997 1497 
L 313 1497 
L 313 2009 
z
" transform="scale(0.015625)"/>
       <path id="DejaVuSans-4f" d="M 2522 4238 
Q 1834 4238 1429 3725 
Q 1025 3213 1025 2328 
Q 1025 1447 1429 934 
Q 1834 422 2522 422 
Q 3209 422 3611 934 
Q 4013 1447 4013 2328 
Q 4013 3213 3611 3725 
Q 3209 4238 2522 4238 
z
M 2522 4750 
Q 3503 4750 4090 4092 
Q 4678 3434 4678 2328 
Q 4678 1225 4090 567 
Q 3503 -91 2522 -91 
Q 1538 -91 948 565 
Q 359 1222 359 2328 
Q 359 3434 948 4092 
Q 1538 4750 2522 4750 
z
" transform="scale(0.015625)"/>
       <path id="DejaVuSans-62" d="M 3116 1747 
Q 3116 2381 2855 2742 
Q 2594 3103 2138 3103 
Q 1681 3103 1420 2742 
Q 1159 2381 1159 1747 
Q 1159 1113 1420 752 
Q 1681 391 2138 391 
Q 2594 391 2855 752 
Q 3116 1113 3116 1747 
z
M 1159 2969 
Q 1341 3281 1617 3432 
Q 1894 3584 2278 3584 
Q 2916 3584 3314 3078 
Q 3713 2572 3713 1747 
Q 3713 922 3314 415 
Q 2916 -91 2278 -91 
Q 1894 -91 1617 61 
Q 1341 213 1159 525 
L 1159 0 
L 581 0 
L 581 4863 
L 1159 4863 
L 1159 2969 
z
" transform="scale(0.015625)"/>
       <path id="DejaVuSans-69" d="M 603 3500 
L 1178 3500 
L 1178 0 
L 603 0 
L 603 3500 
z
M 603 4863 
L 1178 4863 
L 1178 4134 
L 603 4134 
L 603 4863 
z
" transform="scale(0.015625)"/>
       <path id="DejaVuSans-74" d="M 1172 4494 
L 1172 3500 
L 2356 3500 
L 2356 3053 
L 1172 3053 
L 1172 1153 
Q 1172 725 1289 603 
Q 1406 481 1766 481 
L 2356 481 
L 2356 0 
L 1766 0 
Q 1100 0 847 248 
Q 594 497 594 1153 
L 594 3053 
L 172 3053 
L 172 3500 
L 594 3500 
L 594 4494 
L 1172 4494 
z
" transform="scale(0.015625)"/>
       <path id="DejaVuSans-20" transform="scale(0.015625)"/>
       <path id="DejaVuSans-4d" d="M 628 4666 
L 1569 4666 
L 2759 1491 
L 3956 4666 
L 4897 4666 
L 4897 0 
L 4281 0 
L 4281 4097 
L 3078 897 
L 2444 897 
L 1241 4097 
L 1241 0 
L 628 0 
L 628 4666 
z
" transform="scale(0.015625)"/>
       <path id="DejaVuSans-61" d="M 2194 1759 
Q 1497 1759 1228 1600 
Q 959 1441 959 1056 
Q 959 750 1161 570 
Q 1363 391 1709 391 
Q 2188 391 2477 730 
Q 2766 1069 2766 1631 
L 2766 1759 
L 2194 1759 
z
M 3341 1997 
L 3341 0 
L 2766 0 
L 2766 531 
Q 2569 213 2275 61 
Q 1981 -91 1556 -91 
Q 1019 -91 701 211 
Q 384 513 384 1019 
Q 384 1609 779 1909 
Q 1175 2209 1959 2209 
L 2766 2209 
L 2766 2266 
Q 2766 2663 2505 2880 
Q 2244 3097 1772 3097 
Q 1472 3097 1187 3025 
Q 903 2953 641 2809 
L 641 3341 
Q 956 3463 1253 3523 
Q 1550 3584 1831 3584 
Q 2591 3584 2966 3190 
Q 3341 2797 3341 1997 
z
" transform="scale(0.015625)"/>
       <path id="DejaVuSans-6e" d="M 3513 2113 
L 3513 0 
L 2938 0 
L 2938 2094 
Q 2938 2591 2744 2837 
Q 2550 3084 2163 3084 
Q 1697 3084 1428 2787 
Q 1159 2491 1159 1978 
L 1159 0 
L 581 0 
L 581 3500 
L 1159 3500 
L 1159 2956 
Q 1366 3272 1645 3428 
Q 1925 3584 2291 3584 
Q 2894 3584 3203 3211 
Q 3513 2838 3513 2113 
z
" transform="scale(0.015625)"/>
       <path id="DejaVuSans-44" d="M 1259 4147 
L 1259 519 
L 2022 519 
Q 2988 519 3436 956 
Q 3884 1394 3884 2338 
Q 3884 3275 3436 3711 
Q 2988 4147 2022 4147 
L 1259 4147 
z
M 628 4666 
L 1925 4666 
Q 3281 4666 3915 4102 
Q 4550 3538 4550 2338 
Q 4550 1131 3912 565 
Q 3275 0 1925 0 
L 628 0 
L 628 4666 
z
" transform="scale(0.015625)"/>
       <path id="DejaVuSans-67" d="M 2906 1791 
Q 2906 2416 2648 2759 
Q 2391 3103 1925 3103 
Q 1463 3103 1205 2759 
Q 947 2416 947 1791 
Q 947 1169 1205 825 
Q 1463 481 1925 481 
Q 2391 481 2648 825 
Q 2906 1169 2906 1791 
z
M 3481 434 
Q 3481 -459 3084 -895 
Q 2688 -1331 1869 -1331 
Q 1566 -1331 1297 -1286 
Q 1028 -1241 775 -1147 
L 775 -588 
Q 1028 -725 1275 -790 
Q 1522 -856 1778 -856 
Q 2344 -856 2625 -561 
Q 2906 -266 2906 331 
L 2906 616 
Q 2728 306 2450 153 
Q 2172 0 1784 0 
Q 1141 0 747 490 
Q 353 981 353 1791 
Q 353 2603 747 3093 
Q 1141 3584 1784 3584 
Q 2172 3584 2450 3431 
Q 2728 3278 2906 2969 
L 2906 3500 
L 3481 3500 
L 3481 434 
z
" transform="scale(0.015625)"/>
       <path id="DejaVuSans-41" d="M 2188 4044 
L 1331 1722 
L 3047 1722 
L 2188 4044 
z
M 1831 4666 
L 2547 4666 
L 4325 0 
L 3669 0 
L 3244 1197 
L 1141 1197 
L 716 0 
L 50 0 
L 1831 4666 
z
" transform="scale(0.015625)"/>
       <path id="DejaVuSans-63" d="M 3122 3366 
L 3122 2828 
Q 2878 2963 2633 3030 
Q 2388 3097 2138 3097 
Q 1578 3097 1268 2742 
Q 959 2388 959 1747 
Q 959 1106 1268 751 
Q 1578 397 2138 397 
Q 2388 397 2633 464 
Q 2878 531 3122 666 
L 3122 134 
Q 2881 22 2623 -34 
Q 2366 -91 2075 -91 
Q 1284 -91 818 406 
Q 353 903 353 1747 
Q 353 2603 823 3093 
Q 1294 3584 2113 3584 
Q 2378 3584 2631 3529 
Q 2884 3475 3122 3366 
z
" transform="scale(0.015625)"/>
       <path id="DejaVuSans-6c" d="M 603 4863 
L 1178 4863 
L 1178 0 
L 603 0 
L 603 4863 
z
" transform="scale(0.015625)"/>
       <path id="DejaVuSans-6f" d="M 1959 3097 
Q 1497 3097 1228 2736 
Q 959 2375 959 1747 
Q 959 1119 1226 758 
Q 1494 397 1959 397 
Q 2419 397 2687 759 
Q 2956 1122 2956 1747 
Q 2956 2369 2687 2733 
Q 2419 3097 1959 3097 
z
M 1959 3584 
Q 2709 3584 3137 3096 
Q 3566 2609 3566 1747 
Q 3566 888 3137 398 
Q 2709 -91 1959 -91 
Q 1206 -91 779 398 
Q 353 888 353 1747 
Q 353 2609 779 3096 
Q 1206 3584 1959 3584 
z
" transform="scale(0.015625)"/>
       <path id="DejaVuSans-5b" d="M 550 4863 
L 1875 4863 
L 1875 4416 
L 1125 4416 
L 1125 -397 
L 1875 -397 
L 1875 -844 
L 550 -844 
L 550 4863 
z
" transform="scale(0.015625)"/>
       <path id="DejaVuSans-6d" d="M 3328 2828 
Q 3544 3216 3844 3400 
Q 4144 3584 4550 3584 
Q 5097 3584 5394 3201 
Q 5691 2819 5691 2113 
L 5691 0 
L 5113 0 
L 5113 2094 
Q 5113 2597 4934 2840 
Q 4756 3084 4391 3084 
Q 3944 3084 3684 2787 
Q 3425 2491 3425 1978 
L 3425 0 
L 2847 0 
L 2847 2094 
Q 2847 2600 2669 2842 
Q 2491 3084 2119 3084 
Q 1678 3084 1418 2786 
Q 1159 2488 1159 1978 
L 1159 0 
L 581 0 
L 581 3500 
L 1159 3500 
L 1159 2956 
Q 1356 3278 1631 3431 
Q 1906 3584 2284 3584 
Q 2666 3584 2933 3390 
Q 3200 3197 3328 2828 
z
" transform="scale(0.015625)"/>
       <path id="DejaVuSans-2f" d="M 1625 4666 
L 2156 4666 
L 531 -594 
L 0 -594 
L 1625 4666 
z
" transform="scale(0.015625)"/>
       <path id="DejaVuSans-73" d="M 2834 3397 
L 2834 2853 
Q 2591 2978 2328 3040 
Q 2066 3103 1784 3103 
Q 1356 3103 1142 2972 
Q 928 2841 928 2578 
Q 928 2378 1081 2264 
Q 1234 2150 1697 2047 
L 1894 2003 
Q 2506 1872 2764 1633 
Q 3022 1394 3022 966 
Q 3022 478 2636 193 
Q 2250 -91 1575 -91 
Q 1294 -91 989 -36 
Q 684 19 347 128 
L 347 722 
Q 666 556 975 473 
Q 1284 391 1588 391 
Q 1994 391 2212 530 
Q 2431 669 2431 922 
Q 2431 1156 2273 1281 
Q 2116 1406 1581 1522 
L 1381 1569 
Q 847 1681 609 1914 
Q 372 2147 372 2553 
Q 372 3047 722 3315 
Q 1072 3584 1716 3584 
Q 2034 3584 2315 3537 
Q 2597 3491 2834 3397 
z
" transform="scale(0.015625)"/>
       <path id="DejaVuSans-32" d="M 1228 531 
L 3431 531 
L 3431 0 
L 469 0 
L 469 531 
Q 828 903 1448 1529 
Q 2069 2156 2228 2338 
Q 2531 2678 2651 2914 
Q 2772 3150 2772 3378 
Q 2772 3750 2511 3984 
Q 2250 4219 1831 4219 
Q 1534 4219 1204 4116 
Q 875 4013 500 3803 
L 500 4441 
Q 881 4594 1212 4672 
Q 1544 4750 1819 4750 
Q 2544 4750 2975 4387 
Q 3406 4025 3406 3419 
Q 3406 3131 3298 2873 
Q 3191 2616 2906 2266 
Q 2828 2175 2409 1742 
Q 1991 1309 1228 531 
z
" transform="scale(0.015625)"/>
       <path id="DejaVuSans-5d" d="M 1947 4863 
L 1947 -844 
L 622 -844 
L 622 -397 
L 1369 -397 
L 1369 4416 
L 622 4416 
L 622 4863 
L 1947 4863 
z
" transform="scale(0.015625)"/>
      </defs>
      <use xlink:href="#DejaVuSans-50" transform="translate(0 0.765625)"/>
      <use xlink:href="#DejaVuSans-65" transform="translate(60.302734 0.765625)"/>
      <use xlink:href="#DejaVuSans-72" transform="translate(121.826172 0.765625)"/>
      <use xlink:href="#DejaVuSans-2d" transform="translate(162.939453 0.765625)"/>
      <use xlink:href="#DejaVuSans-4f" transform="translate(199.023438 0.765625)"/>
      <use xlink:href="#DejaVuSans-72" transform="translate(277.734375 0.765625)"/>
      <use xlink:href="#DejaVuSans-62" transform="translate(318.847656 0.765625)"/>
      <use xlink:href="#DejaVuSans-69" transform="translate(382.324219 0.765625)"/>
      <use xlink:href="#DejaVuSans-74" transform="translate(410.107422 0.765625)"/>
      <use xlink:href="#DejaVuSans-20" transform="translate(449.316406 0.765625)"/>
      <use xlink:href="#DejaVuSans-4d" transform="translate(481.103516 0.765625)"/>
      <use xlink:href="#DejaVuSans-65" transform="translate(567.382812 0.765625)"/>
      <use xlink:href="#DejaVuSans-61" transform="translate(628.90625 0.765625)"/>
      <use xlink:href="#DejaVuSans-6e" transform="translate(690.185547 0.765625)"/>
      <use xlink:href="#DejaVuSans-20" transform="translate(753.564453 0.765625)"/>
      <use xlink:href="#DejaVuSans-44" transform="translate(785.351562 0.765625)"/>
      <use xlink:href="#DejaVuSans-72" transform="translate(862.353516 0.765625)"/>
      <use xlink:href="#DejaVuSans-61" transform="translate(903.466797 0.765625)"/>
      <use xlink:href="#DejaVuSans-67" transform="translate(964.746094 0.765625)"/>
      <use xlink:href="#DejaVuSans-20" transform="translate(1028.222656 0.765625)"/>
      <use xlink:href="#DejaVuSans-41" transform="translate(1060.009766 0.765625)"/>
      <use xlink:href="#DejaVuSans-63" transform="translate(1128.417969 0.765625)"/>
      <use xlink:href="#DejaVuSans-63" transform="translate(1183.398438 0.765625)"/>
      <use xlink:href="#DejaVuSans-65" transform="translate(1238.378906 0.765625)"/>
      <use xlink:href="#DejaVuSans-6c" transform="translate(1299.902344 0.765625)"/>
      <use xlink:href="#DejaVuSans-65" transform="translate(1327.685547 0.765625)"/>
      <use xlink:href="#DejaVuSans-72" transform="translate(1389.208984 0.765625)"/>
      <use xlink:href="#DejaVuSans-61" transform="translate(1430.322266 0.765625)"/>
      <use xlink:href="#DejaVuSans-74" transform="translate(1491.601562 0.765625)"/>
      <use xlink:href="#DejaVuSans-69" transform="translate(1530.810547 0.765625)"/>
      <use xlink:href="#DejaVuSans-6f" transform="translate(1558.59375 0.765625)"/>
      <use xlink:href="#DejaVuSans-6e" transform="translate(1619.775391 0.765625)"/>
      <use xlink:href="#DejaVuSans-20" transform="translate(1683.154297 0.765625)"/>
      <use xlink:href="#DejaVuSans-5b" transform="translate(1714.941406 0.765625)"/>
      <use xlink:href="#DejaVuSans-6d" transform="translate(1753.955078 0.765625)"/>
      <use xlink:href="#DejaVuSans-2f" transform="translate(1851.367188 0.765625)"/>
      <use xlink:href="#DejaVuSans-73" transform="translate(1885.058594 0.765625)"/>
      <use xlink:href="#DejaVuSans-32" transform="translate(1938.115234 39.046875) scale(0.7)"/>
      <use xlink:href="#DejaVuSans-5d" transform="translate(1985.385742 0.765625)"/>
     </g>
    </g>
   </g>
   <g id="matplotlib.axis_2">
    <g id="ytick_1">
     <g id="line2d_30">
      <path d="M 42.365 269.423219 
L 558.63875 269.423219 
" clip-path="url(#p866494a5c9)" style="fill: none; stroke: #b0b0b0; stroke-opacity: 0.25; stroke-width: 0.5; stroke-linecap: square"/>
     </g>
     <g id="line2d_31">
      <defs>
       <path id="m800cb0bf3d" d="M 0 0 
L -3.5 0 
" style="stroke: #000000; stroke-width: 0.8"/>
      </defs>
      <g>
       <use xlink:href="#m800cb0bf3d" x="42.365" y="269.423219" style="stroke: #000000; stroke-width: 0.8"/>
      </g>
     </g>
     <g id="text_5">
      <!-- 0 -->
      <g transform="translate(29.0025 273.222438) scale(0.1 -0.1)">
       <use xlink:href="#DejaVuSans-30"/>
      </g>
     </g>
    </g>
    <g id="ytick_2">
     <g id="line2d_32">
      <path d="M 42.365 226.352552 
L 558.63875 226.352552 
" clip-path="url(#p866494a5c9)" style="fill: none; stroke: #b0b0b0; stroke-opacity: 0.25; stroke-width: 0.5; stroke-linecap: square"/>
     </g>
     <g id="line2d_33">
      <g>
       <use xlink:href="#m800cb0bf3d" x="42.365" y="226.352552" style="stroke: #000000; stroke-width: 0.8"/>
      </g>
     </g>
     <g id="text_6">
      <!-- 10 -->
      <g transform="translate(22.64 230.151771) scale(0.1 -0.1)">
       <use xlink:href="#DejaVuSans-31"/>
       <use xlink:href="#DejaVuSans-30" x="63.623047"/>
      </g>
     </g>
    </g>
    <g id="ytick_3">
     <g id="line2d_34">
      <path d="M 42.365 183.281885 
L 558.63875 183.281885 
" clip-path="url(#p866494a5c9)" style="fill: none; stroke: #b0b0b0; stroke-opacity: 0.25; stroke-width: 0.5; stroke-linecap: square"/>
     </g>
     <g id="line2d_35">
      <g>
       <use xlink:href="#m800cb0bf3d" x="42.365" y="183.281885" style="stroke: #000000; stroke-width: 0.8"/>
      </g>
     </g>
     <g id="text_7">
      <!-- 20 -->
      <g transform="translate(22.64 187.081104) scale(0.1 -0.1)">
       <use xlink:href="#DejaVuSans-32"/>
       <use xlink:href="#DejaVuSans-30" x="63.623047"/>
      </g>
     </g>
    </g>
    <g id="ytick_4">
     <g id="line2d_36">
      <path d="M 42.365 140.211219 
L 558.63875 140.211219 
" clip-path="url(#p866494a5c9)" style="fill: none; stroke: #b0b0b0; stroke-opacity: 0.25; stroke-width: 0.5; stroke-linecap: square"/>
     </g>
     <g id="line2d_37">
      <g>
       <use xlink:href="#m800cb0bf3d" x="42.365" y="140.211219" style="stroke: #000000; stroke-width: 0.8"/>
      </g>
     </g>
     <g id="text_8">
      <!-- 30 -->
      <g transform="translate(22.64 144.010438) scale(0.1 -0.1)">
       <defs>
        <path id="DejaVuSans-33" d="M 2597 2516 
Q 3050 2419 3304 2112 
Q 3559 1806 3559 1356 
Q 3559 666 3084 287 
Q 2609 -91 1734 -91 
Q 1441 -91 1130 -33 
Q 819 25 488 141 
L 488 750 
Q 750 597 1062 519 
Q 1375 441 1716 441 
Q 2309 441 2620 675 
Q 2931 909 2931 1356 
Q 2931 1769 2642 2001 
Q 2353 2234 1838 2234 
L 1294 2234 
L 1294 2753 
L 1863 2753 
Q 2328 2753 2575 2939 
Q 2822 3125 2822 3475 
Q 2822 3834 2567 4026 
Q 2313 4219 1838 4219 
Q 1578 4219 1281 4162 
Q 984 4106 628 3988 
L 628 4550 
Q 988 4650 1302 4700 
Q 1616 4750 1894 4750 
Q 2613 4750 3031 4423 
Q 3450 4097 3450 3541 
Q 3450 3153 3228 2886 
Q 3006 2619 2597 2516 
z
" transform="scale(0.015625)"/>
       </defs>
       <use xlink:href="#DejaVuSans-33"/>
       <use xlink:href="#DejaVuSans-30" x="63.623047"/>
      </g>
     </g>
    </g>
    <g id="ytick_5">
     <g id="line2d_38">
      <path d="M 42.365 97.140552 
L 558.63875 97.140552 
" clip-path="url(#p866494a5c9)" style="fill: none; stroke: #b0b0b0; stroke-opacity: 0.25; stroke-width: 0.5; stroke-linecap: square"/>
     </g>
     <g id="line2d_39">
      <g>
       <use xlink:href="#m800cb0bf3d" x="42.365" y="97.140552" style="stroke: #000000; stroke-width: 0.8"/>
      </g>
     </g>
     <g id="text_9">
      <!-- 40 -->
      <g transform="translate(22.64 100.939771) scale(0.1 -0.1)">
       <defs>
        <path id="DejaVuSans-34" d="M 2419 4116 
L 825 1625 
L 2419 1625 
L 2419 4116 
z
M 2253 4666 
L 3047 4666 
L 3047 1625 
L 3713 1625 
L 3713 1100 
L 3047 1100 
L 3047 0 
L 2419 0 
L 2419 1100 
L 313 1100 
L 313 1709 
L 2253 4666 
z
" transform="scale(0.015625)"/>
       </defs>
       <use xlink:href="#DejaVuSans-34"/>
       <use xlink:href="#DejaVuSans-30" x="63.623047"/>
      </g>
     </g>
    </g>
    <g id="ytick_6">
     <g id="line2d_40">
      <path d="M 42.365 54.069885 
L 558.63875 54.069885 
" clip-path="url(#p866494a5c9)" style="fill: none; stroke: #b0b0b0; stroke-opacity: 0.25; stroke-width: 0.5; stroke-linecap: square"/>
     </g>
     <g id="line2d_41">
      <g>
       <use xlink:href="#m800cb0bf3d" x="42.365" y="54.069885" style="stroke: #000000; stroke-width: 0.8"/>
      </g>
     </g>
     <g id="text_10">
      <!-- 50 -->
      <g transform="translate(22.64 57.869104) scale(0.1 -0.1)">
       <defs>
        <path id="DejaVuSans-35" d="M 691 4666 
L 3169 4666 
L 3169 4134 
L 1269 4134 
L 1269 2991 
Q 1406 3038 1543 3061 
Q 1681 3084 1819 3084 
Q 2600 3084 3056 2656 
Q 3513 2228 3513 1497 
Q 3513 744 3044 326 
Q 2575 -91 1722 -91 
Q 1428 -91 1123 -41 
Q 819 9 494 109 
L 494 744 
Q 775 591 1075 516 
Q 1375 441 1709 441 
Q 2250 441 2565 725 
Q 2881 1009 2881 1497 
Q 2881 1984 2565 2268 
Q 2250 2553 1709 2553 
Q 1456 2553 1204 2497 
Q 953 2441 691 2322 
L 691 4666 
z
" transform="scale(0.015625)"/>
       </defs>
       <use xlink:href="#DejaVuSans-35"/>
       <use xlink:href="#DejaVuSans-30" x="63.623047"/>
      </g>
     </g>
    </g>
    <g id="ytick_7">
     <g id="line2d_42">
      <path d="M 42.365 10.999219 
L 558.63875 10.999219 
" clip-path="url(#p866494a5c9)" style="fill: none; stroke: #b0b0b0; stroke-opacity: 0.25; stroke-width: 0.5; stroke-linecap: square"/>
     </g>
     <g id="line2d_43">
      <g>
       <use xlink:href="#m800cb0bf3d" x="42.365" y="10.999219" style="stroke: #000000; stroke-width: 0.8"/>
      </g>
     </g>
     <g id="text_11">
      <!-- 60 -->
      <g transform="translate(22.64 14.798438) scale(0.1 -0.1)">
       <use xlink:href="#DejaVuSans-36"/>
       <use xlink:href="#DejaVuSans-30" x="63.623047"/>
      </g>
     </g>
    </g>
    <g id="text_12">
     <!-- Method $\tilde{\rho}_{\mathrm{RMS}}$ [%] -->
     <g transform="translate(16.33 186.026219) rotate(-90) scale(0.11 -0.11)">
      <defs>
       <path id="DejaVuSans-68" d="M 3513 2113 
L 3513 0 
L 2938 0 
L 2938 2094 
Q 2938 2591 2744 2837 
Q 2550 3084 2163 3084 
Q 1697 3084 1428 2787 
Q 1159 2491 1159 1978 
L 1159 0 
L 581 0 
L 581 4863 
L 1159 4863 
L 1159 2956 
Q 1366 3272 1645 3428 
Q 1925 3584 2291 3584 
Q 2894 3584 3203 3211 
Q 3513 2838 3513 2113 
z
" transform="scale(0.015625)"/>
       <path id="DejaVuSans-64" d="M 2906 2969 
L 2906 4863 
L 3481 4863 
L 3481 0 
L 2906 0 
L 2906 525 
Q 2725 213 2448 61 
Q 2172 -91 1784 -91 
Q 1150 -91 751 415 
Q 353 922 353 1747 
Q 353 2572 751 3078 
Q 1150 3584 1784 3584 
Q 2172 3584 2448 3432 
Q 2725 3281 2906 2969 
z
M 947 1747 
Q 947 1113 1208 752 
Q 1469 391 1925 391 
Q 2381 391 2643 752 
Q 2906 1113 2906 1747 
Q 2906 2381 2643 2742 
Q 2381 3103 1925 3103 
Q 1469 3103 1208 2742 
Q 947 2381 947 1747 
z
" transform="scale(0.015625)"/>
       <path id="DejaVuSans-303" d="M -1619 4281 
L -1797 4453 
Q -1866 4516 -1917 4545 
Q -1969 4575 -2009 4575 
Q -2128 4575 -2184 4461 
Q -2241 4347 -2247 4091 
L -2638 4091 
Q -2631 4513 -2472 4742 
Q -2313 4972 -2028 4972 
Q -1909 4972 -1809 4928 
Q -1709 4884 -1594 4781 
L -1416 4609 
Q -1347 4547 -1295 4517 
Q -1244 4488 -1203 4488 
Q -1084 4488 -1028 4602 
Q -972 4716 -966 4972 
L -575 4972 
Q -581 4550 -740 4320 
Q -900 4091 -1184 4091 
Q -1303 4091 -1403 4134 
Q -1503 4178 -1619 4281 
z
" transform="scale(0.015625)"/>
       <path id="DejaVuSans-Oblique-3c1" d="M 1203 2875 
Q 1453 3194 1981 3475 
Q 2188 3584 2756 3584 
Q 3394 3584 3694 3078 
Q 3994 2572 3834 1747 
Q 3672 922 3175 415 
Q 2678 -91 2041 -91 
Q 1656 -91 1409 63 
Q 1163 213 1044 525 
L 681 -1331 
L 103 -1331 
L 697 1716 
Q 838 2438 1203 2875 
z
M 3238 1747 
Q 3359 2381 3169 2744 
Q 2978 3103 2522 3103 
Q 2066 3103 1734 2744 
Q 1403 2381 1281 1747 
Q 1156 1113 1347 750 
Q 1538 391 1994 391 
Q 2450 391 2781 750 
Q 3113 1113 3238 1747 
z
" transform="scale(0.015625)"/>
       <path id="DejaVuSans-52" d="M 2841 2188 
Q 3044 2119 3236 1894 
Q 3428 1669 3622 1275 
L 4263 0 
L 3584 0 
L 2988 1197 
Q 2756 1666 2539 1819 
Q 2322 1972 1947 1972 
L 1259 1972 
L 1259 0 
L 628 0 
L 628 4666 
L 2053 4666 
Q 2853 4666 3247 4331 
Q 3641 3997 3641 3322 
Q 3641 2881 3436 2590 
Q 3231 2300 2841 2188 
z
M 1259 4147 
L 1259 2491 
L 2053 2491 
Q 2509 2491 2742 2702 
Q 2975 2913 2975 3322 
Q 2975 3731 2742 3939 
Q 2509 4147 2053 4147 
L 1259 4147 
z
" transform="scale(0.015625)"/>
       <path id="DejaVuSans-53" d="M 3425 4513 
L 3425 3897 
Q 3066 4069 2747 4153 
Q 2428 4238 2131 4238 
Q 1616 4238 1336 4038 
Q 1056 3838 1056 3469 
Q 1056 3159 1242 3001 
Q 1428 2844 1947 2747 
L 2328 2669 
Q 3034 2534 3370 2195 
Q 3706 1856 3706 1288 
Q 3706 609 3251 259 
Q 2797 -91 1919 -91 
Q 1588 -91 1214 -16 
Q 841 59 441 206 
L 441 856 
Q 825 641 1194 531 
Q 1563 422 1919 422 
Q 2459 422 2753 634 
Q 3047 847 3047 1241 
Q 3047 1584 2836 1778 
Q 2625 1972 2144 2069 
L 1759 2144 
Q 1053 2284 737 2584 
Q 422 2884 422 3419 
Q 422 4038 858 4394 
Q 1294 4750 2059 4750 
Q 2388 4750 2728 4690 
Q 3069 4631 3425 4513 
z
" transform="scale(0.015625)"/>
       <path id="DejaVuSans-25" d="M 4653 2053 
Q 4381 2053 4226 1822 
Q 4072 1591 4072 1178 
Q 4072 772 4226 539 
Q 4381 306 4653 306 
Q 4919 306 5073 539 
Q 5228 772 5228 1178 
Q 5228 1588 5073 1820 
Q 4919 2053 4653 2053 
z
M 4653 2450 
Q 5147 2450 5437 2106 
Q 5728 1763 5728 1178 
Q 5728 594 5436 251 
Q 5144 -91 4653 -91 
Q 4153 -91 3862 251 
Q 3572 594 3572 1178 
Q 3572 1766 3864 2108 
Q 4156 2450 4653 2450 
z
M 1428 4353 
Q 1159 4353 1004 4120 
Q 850 3888 850 3481 
Q 850 3069 1003 2837 
Q 1156 2606 1428 2606 
Q 1700 2606 1854 2837 
Q 2009 3069 2009 3481 
Q 2009 3884 1853 4118 
Q 1697 4353 1428 4353 
z
M 4250 4750 
L 4750 4750 
L 1831 -91 
L 1331 -91 
L 4250 4750 
z
M 1428 4750 
Q 1922 4750 2215 4408 
Q 2509 4066 2509 3481 
Q 2509 2891 2217 2550 
Q 1925 2209 1428 2209 
Q 931 2209 642 2551 
Q 353 2894 353 3481 
Q 353 4063 643 4406 
Q 934 4750 1428 4750 
z
" transform="scale(0.015625)"/>
      </defs>
      <use xlink:href="#DejaVuSans-4d" transform="translate(0 0.734375)"/>
      <use xlink:href="#DejaVuSans-65" transform="translate(86.279297 0.734375)"/>
      <use xlink:href="#DejaVuSans-74" transform="translate(147.802734 0.734375)"/>
      <use xlink:href="#DejaVuSans-68" transform="translate(187.011719 0.734375)"/>
      <use xlink:href="#DejaVuSans-6f" transform="translate(250.390625 0.734375)"/>
      <use xlink:href="#DejaVuSans-64" transform="translate(311.572266 0.734375)"/>
      <use xlink:href="#DejaVuSans-20" transform="translate(375.048828 0.734375)"/>
      <use xlink:href="#DejaVuSans-303" transform="translate(471.923828 5.3125)"/>
      <use xlink:href="#DejaVuSans-Oblique-3c1" transform="translate(406.835938 0.734375)"/>
      <use xlink:href="#DejaVuSans-52" transform="translate(471.269531 -15.671875) scale(0.7)"/>
      <use xlink:href="#DejaVuSans-4d" transform="translate(519.907227 -15.671875) scale(0.7)"/>
      <use xlink:href="#DejaVuSans-53" transform="translate(580.302734 -15.671875) scale(0.7)"/>
      <use xlink:href="#DejaVuSans-20" transform="translate(627.470703 0.734375)"/>
      <use xlink:href="#DejaVuSans-5b" transform="translate(659.257812 0.734375)"/>
      <use xlink:href="#DejaVuSans-25" transform="translate(698.271484 0.734375)"/>
      <use xlink:href="#DejaVuSans-5d" transform="translate(793.291016 0.734375)"/>
     </g>
    </g>
   </g>
   <g id="line2d_44">
    <path d="M 65.831989 140.211219 
L 120.129488 161.746552 
L 246.204376 209.124285 
L 300.501875 213.431352 
L 426.576763 230.659619 
L 480.874262 234.966685 
L 535.171761 247.887885 
" clip-path="url(#p866494a5c9)" style="fill: none; stroke-dasharray: 5.55,2.4; stroke-dashoffset: 0; stroke: #ff00ff; stroke-width: 1.5"/>
   </g>
   <g id="line2d_45">
    <path d="M 65.831989 32.534552 
L 120.129488 62.684019 
L 246.204376 54.069885 
L 354.799374 183.281885 
L 426.576763 204.817219 
L 480.874262 209.124285 
" clip-path="url(#p866494a5c9)" style="fill: none; stroke-dasharray: 5.55,2.4; stroke-dashoffset: 0; stroke: #00ffff; stroke-width: 1.5"/>
   </g>
   <g id="patch_3">
    <path d="M 42.365 269.423219 
L 42.365 10.999219 
" style="fill: none; stroke: #000000; stroke-width: 0.8; stroke-linejoin: miter; stroke-linecap: square"/>
   </g>
   <g id="patch_4">
    <path d="M 558.63875 269.423219 
L 558.63875 10.999219 
" style="fill: none; stroke: #000000; stroke-width: 0.8; stroke-linejoin: miter; stroke-linecap: square"/>
   </g>
   <g id="patch_5">
    <path d="M 42.365 269.423219 
L 558.63875 269.423219 
" style="fill: none; stroke: #000000; stroke-width: 0.8; stroke-linejoin: miter; stroke-linecap: square"/>
   </g>
   <g id="patch_6">
    <path d="M 42.365 10.999219 
L 558.63875 10.999219 
" style="fill: none; stroke: #000000; stroke-width: 0.8; stroke-linejoin: miter; stroke-linecap: square"/>
   </g>
   <g id="LineCollection_1">
    <path d="M 116.367971 239.213526 
L 116.367971 81.498992 
" clip-path="url(#p866494a5c9)" style="fill: none; stroke: #ff00ff; stroke-width: 1.8"/>
    <path d="M 162.890943 244.95089 
L 162.890943 96.89308 
" clip-path="url(#p866494a5c9)" style="fill: none; stroke: #ff00ff; stroke-width: 1.8"/>
    <path d="M 209.413916 255.044011 
L 209.413916 148.267477 
" clip-path="url(#p866494a5c9)" style="fill: none; stroke: #ff00ff; stroke-width: 1.8"/>
    <path d="M 255.936888 260.859529 
L 255.936888 208.429332 
" clip-path="url(#p866494a5c9)" style="fill: none; stroke: #ff00ff; stroke-width: 1.8"/>
    <path d="M 302.45986 262.480146 
L 302.45986 168.768252 
" clip-path="url(#p866494a5c9)" style="fill: none; stroke: #ff00ff; stroke-width: 1.8"/>
    <path d="M 348.982832 262.836482 
L 348.982832 182.465623 
" clip-path="url(#p866494a5c9)" style="fill: none; stroke: #ff00ff; stroke-width: 1.8"/>
    <path d="M 395.505804 264.646305 
L 395.505804 203.621239 
" clip-path="url(#p866494a5c9)" style="fill: none; stroke: #ff00ff; stroke-width: 1.8"/>
    <path d="M 442.028777 266.534924 
L 442.028777 202.215115 
" clip-path="url(#p866494a5c9)" style="fill: none; stroke: #ff00ff; stroke-width: 1.8"/>
    <path d="M 488.551749 264.692805 
L 488.551749 199.889252 
" clip-path="url(#p866494a5c9)" style="fill: none; stroke: #ff00ff; stroke-width: 1.8"/>
   </g>
   <g id="line2d_46">
    <defs>
     <path id="me02844da8d" d="M 3 0 
L -3 -0 
" style="stroke: #ff00ff"/>
    </defs>
    <g clip-path="url(#p866494a5c9)">
     <use xlink:href="#me02844da8d" x="116.367971" y="239.213526" style="fill: #ff00ff; stroke: #ff00ff"/>
     <use xlink:href="#me02844da8d" x="162.890943" y="244.95089" style="fill: #ff00ff; stroke: #ff00ff"/>
     <use xlink:href="#me02844da8d" x="209.413916" y="255.044011" style="fill: #ff00ff; stroke: #ff00ff"/>
     <use xlink:href="#me02844da8d" x="255.936888" y="260.859529" style="fill: #ff00ff; stroke: #ff00ff"/>
     <use xlink:href="#me02844da8d" x="302.45986" y="262.480146" style="fill: #ff00ff; stroke: #ff00ff"/>
     <use xlink:href="#me02844da8d" x="348.982832" y="262.836482" style="fill: #ff00ff; stroke: #ff00ff"/>
     <use xlink:href="#me02844da8d" x="395.505804" y="264.646305" style="fill: #ff00ff; stroke: #ff00ff"/>
     <use xlink:href="#me02844da8d" x="442.028777" y="266.534924" style="fill: #ff00ff; stroke: #ff00ff"/>
     <use xlink:href="#me02844da8d" x="488.551749" y="264.692805" style="fill: #ff00ff; stroke: #ff00ff"/>
    </g>
   </g>
   <g id="line2d_47">
    <g clip-path="url(#p866494a5c9)">
     <use xlink:href="#me02844da8d" x="116.367971" y="81.498992" style="fill: #ff00ff; stroke: #ff00ff"/>
     <use xlink:href="#me02844da8d" x="162.890943" y="96.89308" style="fill: #ff00ff; stroke: #ff00ff"/>
     <use xlink:href="#me02844da8d" x="209.413916" y="148.267477" style="fill: #ff00ff; stroke: #ff00ff"/>
     <use xlink:href="#me02844da8d" x="255.936888" y="208.429332" style="fill: #ff00ff; stroke: #ff00ff"/>
     <use xlink:href="#me02844da8d" x="302.45986" y="168.768252" style="fill: #ff00ff; stroke: #ff00ff"/>
     <use xlink:href="#me02844da8d" x="348.982832" y="182.465623" style="fill: #ff00ff; stroke: #ff00ff"/>
     <use xlink:href="#me02844da8d" x="395.505804" y="203.621239" style="fill: #ff00ff; stroke: #ff00ff"/>
     <use xlink:href="#me02844da8d" x="442.028777" y="202.215115" style="fill: #ff00ff; stroke: #ff00ff"/>
     <use xlink:href="#me02844da8d" x="488.551749" y="199.889252" style="fill: #ff00ff; stroke: #ff00ff"/>
    </g>
   </g>
   <g id="LineCollection_2">
    <path d="M 114.608577 200.500238 
L 114.608577 -1 
" clip-path="url(#p866494a5c9)" style="fill: none; stroke: #00ffff; stroke-width: 1.8"/>
    <path d="M 161.338536 235.132284 
L 161.338536 84.106544 
" clip-path="url(#p866494a5c9)" style="fill: none; stroke: #00ffff; stroke-width: 1.8"/>
    <path d="M 208.068496 254.766831 
L 208.068496 188.651724 
" clip-path="url(#p866494a5c9)" style="fill: none; stroke: #00ffff; stroke-width: 1.8"/>
    <path d="M 254.798456 258.521753 
L 254.798456 210.473772 
" clip-path="url(#p866494a5c9)" style="fill: none; stroke: #00ffff; stroke-width: 1.8"/>
    <path d="M 301.528416 262.756177 
L 301.528416 241.817538 
" clip-path="url(#p866494a5c9)" style="fill: none; stroke: #00ffff; stroke-width: 1.8"/>
    <path d="M 348.258376 265.894933 
L 348.258376 219.127354 
" clip-path="url(#p866494a5c9)" style="fill: none; stroke: #00ffff; stroke-width: 1.8"/>
    <path d="M 394.988335 265.678699 
L 394.988335 227.226172 
" clip-path="url(#p866494a5c9)" style="fill: none; stroke: #00ffff; stroke-width: 1.8"/>
    <path d="M 441.718295 265.701106 
L 441.718295 224.275811 
" clip-path="url(#p866494a5c9)" style="fill: none; stroke: #00ffff; stroke-width: 1.8"/>
    <path d="M 488.448255 264.26548 
L 488.448255 214.777334 
" clip-path="url(#p866494a5c9)" style="fill: none; stroke: #00ffff; stroke-width: 1.8"/>
   </g>
   <g id="line2d_48">
    <defs>
     <path id="mdd178e862e" d="M 3 0 
L -3 -0 
" style="stroke: #00ffff"/>
    </defs>
    <g clip-path="url(#p866494a5c9)">
     <use xlink:href="#mdd178e862e" x="114.608577" y="200.500238" style="fill: #00ffff; stroke: #00ffff"/>
     <use xlink:href="#mdd178e862e" x="161.338536" y="235.132284" style="fill: #00ffff; stroke: #00ffff"/>
     <use xlink:href="#mdd178e862e" x="208.068496" y="254.766831" style="fill: #00ffff; stroke: #00ffff"/>
     <use xlink:href="#mdd178e862e" x="254.798456" y="258.521753" style="fill: #00ffff; stroke: #00ffff"/>
     <use xlink:href="#mdd178e862e" x="301.528416" y="262.756177" style="fill: #00ffff; stroke: #00ffff"/>
     <use xlink:href="#mdd178e862e" x="348.258376" y="265.894933" style="fill: #00ffff; stroke: #00ffff"/>
     <use xlink:href="#mdd178e862e" x="394.988335" y="265.678699" style="fill: #00ffff; stroke: #00ffff"/>
     <use xlink:href="#mdd178e862e" x="441.718295" y="265.701106" style="fill: #00ffff; stroke: #00ffff"/>
     <use xlink:href="#mdd178e862e" x="488.448255" y="264.26548" style="fill: #00ffff; stroke: #00ffff"/>
    </g>
   </g>
   <g id="line2d_49">
    <g clip-path="url(#p866494a5c9)">
     <use xlink:href="#mdd178e862e" x="116.222603" y="-1" style="fill: #00ffff; stroke: #00ffff"/>
     <use xlink:href="#mdd178e862e" x="161.338536" y="84.106544" style="fill: #00ffff; stroke: #00ffff"/>
     <use xlink:href="#mdd178e862e" x="208.068496" y="188.651724" style="fill: #00ffff; stroke: #00ffff"/>
     <use xlink:href="#mdd178e862e" x="254.798456" y="210.473772" style="fill: #00ffff; stroke: #00ffff"/>
     <use xlink:href="#mdd178e862e" x="301.528416" y="241.817538" style="fill: #00ffff; stroke: #00ffff"/>
     <use xlink:href="#mdd178e862e" x="348.258376" y="219.127354" style="fill: #00ffff; stroke: #00ffff"/>
     <use xlink:href="#mdd178e862e" x="394.988335" y="227.226172" style="fill: #00ffff; stroke: #00ffff"/>
     <use xlink:href="#mdd178e862e" x="441.718295" y="224.275811" style="fill: #00ffff; stroke: #00ffff"/>
     <use xlink:href="#mdd178e862e" x="488.448255" y="214.777334" style="fill: #00ffff; stroke: #00ffff"/>
    </g>
   </g>
   <g id="line2d_50">
    <path d="M 116.367971 160.356259 
L 162.890943 170.921985 
L 209.413916 201.655744 
L 255.936888 234.644431 
L 302.45986 215.624199 
L 348.982832 222.651053 
L 395.505804 234.133772 
L 442.028777 234.37502 
L 488.551749 232.291028 
" clip-path="url(#p866494a5c9)" style="fill: none; stroke: #ff00ff; stroke-width: 1.8; stroke-linecap: square"/>
    <defs>
     <path id="mb4652f5d6b" d="M 0 2 
C 0.530406 2 1.03916 1.789267 1.414214 1.414214 
C 1.789267 1.03916 2 0.530406 2 0 
C 2 -0.530406 1.789267 -1.03916 1.414214 -1.414214 
C 1.03916 -1.789267 0.530406 -2 0 -2 
C -0.530406 -2 -1.03916 -1.789267 -1.414214 -1.414214 
C -1.789267 -1.03916 -2 -0.530406 -2 0 
C -2 0.530406 -1.789267 1.03916 -1.414214 1.414214 
C -1.03916 1.789267 -0.530406 2 0 2 
z
" style="stroke: #ff00ff"/>
    </defs>
    <g clip-path="url(#p866494a5c9)">
     <use xlink:href="#mb4652f5d6b" x="116.367971" y="160.356259" style="fill: #ff00ff; stroke: #ff00ff"/>
     <use xlink:href="#mb4652f5d6b" x="162.890943" y="170.921985" style="fill: #ff00ff; stroke: #ff00ff"/>
     <use xlink:href="#mb4652f5d6b" x="209.413916" y="201.655744" style="fill: #ff00ff; stroke: #ff00ff"/>
     <use xlink:href="#mb4652f5d6b" x="255.936888" y="234.644431" style="fill: #ff00ff; stroke: #ff00ff"/>
     <use xlink:href="#mb4652f5d6b" x="302.45986" y="215.624199" style="fill: #ff00ff; stroke: #ff00ff"/>
     <use xlink:href="#mb4652f5d6b" x="348.982832" y="222.651053" style="fill: #ff00ff; stroke: #ff00ff"/>
     <use xlink:href="#mb4652f5d6b" x="395.505804" y="234.133772" style="fill: #ff00ff; stroke: #ff00ff"/>
     <use xlink:href="#mb4652f5d6b" x="442.028777" y="234.37502" style="fill: #ff00ff; stroke: #ff00ff"/>
     <use xlink:href="#mb4652f5d6b" x="488.551749" y="232.291028" style="fill: #ff00ff; stroke: #ff00ff"/>
    </g>
   </g>
   <g id="line2d_51">
    <path d="M 114.608577 98.227772 
L 161.338536 159.619414 
L 208.068496 221.709277 
L 254.798456 234.497763 
L 301.528416 252.286858 
L 348.258376 242.511143 
L 394.988335 246.452436 
L 441.718295 244.988458 
L 488.448255 239.521407 
" clip-path="url(#p866494a5c9)" style="fill: none; stroke: #00ffff; stroke-width: 1.8; stroke-linecap: square"/>
    <defs>
     <path id="ma36ff9b9f6" d="M 0 2 
C 0.530406 2 1.03916 1.789267 1.414214 1.414214 
C 1.789267 1.03916 2 0.530406 2 0 
C 2 -0.530406 1.789267 -1.03916 1.414214 -1.414214 
C 1.03916 -1.789267 0.530406 -2 0 -2 
C -0.530406 -2 -1.03916 -1.789267 -1.414214 -1.414214 
C -1.789267 -1.03916 -2 -0.530406 -2 0 
C -2 0.530406 -1.789267 1.03916 -1.414214 1.414214 
C -1.03916 1.789267 -0.530406 2 0 2 
z
" style="stroke: #00ffff"/>
    </defs>
    <g clip-path="url(#p866494a5c9)">
     <use xlink:href="#ma36ff9b9f6" x="114.608577" y="98.227772" style="fill: #00ffff; stroke: #00ffff"/>
     <use xlink:href="#ma36ff9b9f6" x="161.338536" y="159.619414" style="fill: #00ffff; stroke: #00ffff"/>
     <use xlink:href="#ma36ff9b9f6" x="208.068496" y="221.709277" style="fill: #00ffff; stroke: #00ffff"/>
     <use xlink:href="#ma36ff9b9f6" x="254.798456" y="234.497763" style="fill: #00ffff; stroke: #00ffff"/>
     <use xlink:href="#ma36ff9b9f6" x="301.528416" y="252.286858" style="fill: #00ffff; stroke: #00ffff"/>
     <use xlink:href="#ma36ff9b9f6" x="348.258376" y="242.511143" style="fill: #00ffff; stroke: #00ffff"/>
     <use xlink:href="#ma36ff9b9f6" x="394.988335" y="246.452436" style="fill: #00ffff; stroke: #00ffff"/>
     <use xlink:href="#ma36ff9b9f6" x="441.718295" y="244.988458" style="fill: #00ffff; stroke: #00ffff"/>
     <use xlink:href="#ma36ff9b9f6" x="488.448255" y="239.521407" style="fill: #00ffff; stroke: #00ffff"/>
    </g>
   </g>
   <g id="legend_1">
    <g id="patch_7">
     <path d="M 438.802344 71.040469 
L 552.33875 71.040469 
Q 554.13875 71.040469 554.13875 69.240469 
L 554.13875 17.299219 
Q 554.13875 15.499219 552.33875 15.499219 
L 438.802344 15.499219 
Q 437.002344 15.499219 437.002344 17.299219 
L 437.002344 69.240469 
Q 437.002344 71.040469 438.802344 71.040469 
z
" style="fill: #ffffff; opacity: 0.9; stroke: #000000; stroke-linejoin: miter"/>
    </g>
    <g id="line2d_52">
     <path d="M 440.602344 22.787813 
L 449.602344 22.787813 
L 458.602344 22.787813 
" style="fill: none; stroke-dasharray: 5.55,2.4; stroke-dashoffset: 0; stroke: #ff00ff; stroke-width: 1.5"/>
    </g>
    <g id="text_13">
     <!-- POD-A (Ray et al.) -->
     <g transform="translate(465.802344 25.937813) scale(0.09 -0.09)">
      <defs>
       <path id="DejaVuSans-28" d="M 1984 4856 
Q 1566 4138 1362 3434 
Q 1159 2731 1159 2009 
Q 1159 1288 1364 580 
Q 1569 -128 1984 -844 
L 1484 -844 
Q 1016 -109 783 600 
Q 550 1309 550 2009 
Q 550 2706 781 3412 
Q 1013 4119 1484 4856 
L 1984 4856 
z
" transform="scale(0.015625)"/>
       <path id="DejaVuSans-79" d="M 2059 -325 
Q 1816 -950 1584 -1140 
Q 1353 -1331 966 -1331 
L 506 -1331 
L 506 -850 
L 844 -850 
Q 1081 -850 1212 -737 
Q 1344 -625 1503 -206 
L 1606 56 
L 191 3500 
L 800 3500 
L 1894 763 
L 2988 3500 
L 3597 3500 
L 2059 -325 
z
" transform="scale(0.015625)"/>
       <path id="DejaVuSans-2e" d="M 684 794 
L 1344 794 
L 1344 0 
L 684 0 
L 684 794 
z
" transform="scale(0.015625)"/>
       <path id="DejaVuSans-29" d="M 513 4856 
L 1013 4856 
Q 1481 4119 1714 3412 
Q 1947 2706 1947 2009 
Q 1947 1309 1714 600 
Q 1481 -109 1013 -844 
L 513 -844 
Q 928 -128 1133 580 
Q 1338 1288 1338 2009 
Q 1338 2731 1133 3434 
Q 928 4138 513 4856 
z
" transform="scale(0.015625)"/>
      </defs>
      <use xlink:href="#DejaVuSans-50"/>
      <use xlink:href="#DejaVuSans-4f" x="60.302734"/>
      <use xlink:href="#DejaVuSans-44" x="139.013672"/>
      <use xlink:href="#DejaVuSans-2d" x="216.015625"/>
      <use xlink:href="#DejaVuSans-41" x="249.849609"/>
      <use xlink:href="#DejaVuSans-20" x="318.257812"/>
      <use xlink:href="#DejaVuSans-28" x="350.044922"/>
      <use xlink:href="#DejaVuSans-52" x="389.058594"/>
      <use xlink:href="#DejaVuSans-61" x="456.291016"/>
      <use xlink:href="#DejaVuSans-79" x="517.570312"/>
      <use xlink:href="#DejaVuSans-20" x="576.75"/>
      <use xlink:href="#DejaVuSans-65" x="608.537109"/>
      <use xlink:href="#DejaVuSans-74" x="670.060547"/>
      <use xlink:href="#DejaVuSans-20" x="709.269531"/>
      <use xlink:href="#DejaVuSans-61" x="741.056641"/>
      <use xlink:href="#DejaVuSans-6c" x="802.335938"/>
      <use xlink:href="#DejaVuSans-2e" x="830.119141"/>
      <use xlink:href="#DejaVuSans-29" x="861.90625"/>
     </g>
    </g>
    <g id="line2d_53">
     <path d="M 440.602344 35.998125 
L 449.602344 35.998125 
L 458.602344 35.998125 
" style="fill: none; stroke-dasharray: 5.55,2.4; stroke-dashoffset: 0; stroke: #00ffff; stroke-width: 1.5"/>
    </g>
    <g id="text_14">
     <!-- EDR (Ray et al.) -->
     <g transform="translate(465.802344 39.148125) scale(0.09 -0.09)">
      <defs>
       <path id="DejaVuSans-45" d="M 628 4666 
L 3578 4666 
L 3578 4134 
L 1259 4134 
L 1259 2753 
L 3481 2753 
L 3481 2222 
L 1259 2222 
L 1259 531 
L 3634 531 
L 3634 0 
L 628 0 
L 628 4666 
z
" transform="scale(0.015625)"/>
      </defs>
      <use xlink:href="#DejaVuSans-45"/>
      <use xlink:href="#DejaVuSans-44" x="63.183594"/>
      <use xlink:href="#DejaVuSans-52" x="140.185547"/>
      <use xlink:href="#DejaVuSans-20" x="209.667969"/>
      <use xlink:href="#DejaVuSans-28" x="241.455078"/>
      <use xlink:href="#DejaVuSans-52" x="280.46875"/>
      <use xlink:href="#DejaVuSans-61" x="347.701172"/>
      <use xlink:href="#DejaVuSans-79" x="408.980469"/>
      <use xlink:href="#DejaVuSans-20" x="468.160156"/>
      <use xlink:href="#DejaVuSans-65" x="499.947266"/>
      <use xlink:href="#DejaVuSans-74" x="561.470703"/>
      <use xlink:href="#DejaVuSans-20" x="600.679688"/>
      <use xlink:href="#DejaVuSans-61" x="632.466797"/>
      <use xlink:href="#DejaVuSans-6c" x="693.746094"/>
      <use xlink:href="#DejaVuSans-2e" x="721.529297"/>
      <use xlink:href="#DejaVuSans-29" x="753.316406"/>
     </g>
    </g>
    <g id="LineCollection_3">
     <path d="M 449.602344 53.708437 
L 449.602344 44.708437 
" style="fill: none; stroke: #ff00ff; stroke-width: 1.8"/>
    </g>
    <g id="line2d_54">
     <g>
      <use xlink:href="#me02844da8d" x="449.602344" y="53.708437" style="fill: #ff00ff; stroke: #ff00ff"/>
     </g>
    </g>
    <g id="line2d_55">
     <g>
      <use xlink:href="#me02844da8d" x="449.602344" y="44.708437" style="fill: #ff00ff; stroke: #ff00ff"/>
     </g>
    </g>
    <g id="line2d_56">
     <path d="M 440.602344 49.208437 
L 458.602344 49.208437 
" style="fill: none; stroke: #ff00ff; stroke-width: 1.8; stroke-linecap: square"/>
    </g>
    <g id="line2d_57">
     <g>
      <use xlink:href="#mb4652f5d6b" x="449.602344" y="49.208437" style="fill: #ff00ff; stroke: #ff00ff"/>
     </g>
    </g>
    <g id="text_15">
     <!-- POD-A (This study) -->
     <g transform="translate(465.802344 52.358437) scale(0.09 -0.09)">
      <defs>
       <path id="DejaVuSans-54" d="M -19 4666 
L 3928 4666 
L 3928 4134 
L 2272 4134 
L 2272 0 
L 1638 0 
L 1638 4134 
L -19 4134 
L -19 4666 
z
" transform="scale(0.015625)"/>
       <path id="DejaVuSans-75" d="M 544 1381 
L 544 3500 
L 1119 3500 
L 1119 1403 
Q 1119 906 1312 657 
Q 1506 409 1894 409 
Q 2359 409 2629 706 
Q 2900 1003 2900 1516 
L 2900 3500 
L 3475 3500 
L 3475 0 
L 2900 0 
L 2900 538 
Q 2691 219 2414 64 
Q 2138 -91 1772 -91 
Q 1169 -91 856 284 
Q 544 659 544 1381 
z
M 1991 3584 
L 1991 3584 
z
" transform="scale(0.015625)"/>
      </defs>
      <use xlink:href="#DejaVuSans-50"/>
      <use xlink:href="#DejaVuSans-4f" x="60.302734"/>
      <use xlink:href="#DejaVuSans-44" x="139.013672"/>
      <use xlink:href="#DejaVuSans-2d" x="216.015625"/>
      <use xlink:href="#DejaVuSans-41" x="249.849609"/>
      <use xlink:href="#DejaVuSans-20" x="318.257812"/>
      <use xlink:href="#DejaVuSans-28" x="350.044922"/>
      <use xlink:href="#DejaVuSans-54" x="389.058594"/>
      <use xlink:href="#DejaVuSans-68" x="450.142578"/>
      <use xlink:href="#DejaVuSans-69" x="513.521484"/>
      <use xlink:href="#DejaVuSans-73" x="541.304688"/>
      <use xlink:href="#DejaVuSans-20" x="593.404297"/>
      <use xlink:href="#DejaVuSans-73" x="625.191406"/>
      <use xlink:href="#DejaVuSans-74" x="677.291016"/>
      <use xlink:href="#DejaVuSans-75" x="716.5"/>
      <use xlink:href="#DejaVuSans-64" x="779.878906"/>
      <use xlink:href="#DejaVuSans-79" x="843.355469"/>
      <use xlink:href="#DejaVuSans-29" x="902.535156"/>
     </g>
    </g>
    <g id="LineCollection_4">
     <path d="M 449.602344 66.91875 
L 449.602344 57.91875 
" style="fill: none; stroke: #00ffff; stroke-width: 1.8"/>
    </g>
    <g id="line2d_58">
     <g>
      <use xlink:href="#mdd178e862e" x="449.602344" y="66.91875" style="fill: #00ffff; stroke: #00ffff"/>
     </g>
    </g>
    <g id="line2d_59">
     <g>
      <use xlink:href="#mdd178e862e" x="449.602344" y="57.91875" style="fill: #00ffff; stroke: #00ffff"/>
     </g>
    </g>
    <g id="line2d_60">
     <path d="M 440.602344 62.41875 
L 458.602344 62.41875 
" style="fill: none; stroke: #00ffff; stroke-width: 1.8; stroke-linecap: square"/>
    </g>
    <g id="line2d_61">
     <g>
      <use xlink:href="#ma36ff9b9f6" x="449.602344" y="62.41875" style="fill: #00ffff; stroke: #00ffff"/>
     </g>
    </g>
    <g id="text_16">
     <!-- EDR (This study) -->
     <g transform="translate(465.802344 65.56875) scale(0.09 -0.09)">
      <use xlink:href="#DejaVuSans-45"/>
      <use xlink:href="#DejaVuSans-44" x="63.183594"/>
      <use xlink:href="#DejaVuSans-52" x="140.185547"/>
      <use xlink:href="#DejaVuSans-20" x="209.667969"/>
      <use xlink:href="#DejaVuSans-28" x="241.455078"/>
      <use xlink:href="#DejaVuSans-54" x="280.46875"/>
      <use xlink:href="#DejaVuSans-68" x="341.552734"/>
      <use xlink:href="#DejaVuSans-69" x="404.931641"/>
      <use xlink:href="#DejaVuSans-73" x="432.714844"/>
      <use xlink:href="#DejaVuSans-20" x="484.814453"/>
      <use xlink:href="#DejaVuSans-73" x="516.601562"/>
      <use xlink:href="#DejaVuSans-74" x="568.701172"/>
      <use xlink:href="#DejaVuSans-75" x="607.910156"/>
      <use xlink:href="#DejaVuSans-64" x="671.289062"/>
      <use xlink:href="#DejaVuSans-79" x="734.765625"/>
      <use xlink:href="#DejaVuSans-29" x="793.945312"/>
     </g>
    </g>
   </g>
  </g>
 </g>
 <defs>
  <clipPath id="p866494a5c9">
   <rect x="42.365" y="10.999219" width="516.27375" height="258.424"/>
  </clipPath>
 </defs>
</svg>
